<svg width="256" height="256" viewBox="0 0 256 256" fill="none" xmlns="http://www.w3.org/2000/svg">
<g clip-path="url(#clip0_503_2)">
<path d="M0 0H256V256H0V0Z" fill="#F7DF1E"/>
<path d="M46.9279 160.205L63.5 145.5C68.583 151.275 73.2638 155.167 81.3325 153.462C89.0669 151.828 93.3039 147.772 90.8177 136.004L73.9092 55.9727L97.4472 50.9998L114.426 131.364C119.577 155.743 107.631 169.859 86.7815 174.264C67.952 178.242 54.9616 170.799 46.9271 160.203" fill="black"/>
<path d="M-2.6799 230.264L14.8424 215.936C21.2795 223.424 28.8845 228.458 40.5883 226.562C50.4282 224.967 55.9058 219.031 54.8064 212.246C53.4871 204.103 46.5743 202.264 34.9483 199.275L28.6004 197.69C10.285 193.173 -2.56481 185.855 -5.69809 166.517C-8.58395 148.705 2.78744 132.936 23.9921 129.5C39.0894 127.054 50.7978 130.554 60.8262 143.03L44.2601 157.899C39.007 151.266 34.1307 149.097 27.3458 150.196C20.3908 151.323 16.6947 156.448 17.629 162.214C18.7834 169.339 23.6614 171.509 34.5529 174.271L40.9017 175.853C62.4897 181.234 75.2844 188.212 78.5 208.058C81.9632 229.433 67.0663 243.858 44.5058 247.513C22.4539 251.086 6.50022 242.878 -2.6799 230.264Z" fill="black"/>
<path d="M100.29 227.826C97.6375 228.256 95.2554 228.159 93.1442 227.535C91.0304 226.896 89.2739 225.677 87.8744 223.878C86.4879 222.06 85.5436 219.602 85.0414 216.501C84.5268 213.324 84.6997 210.629 85.5601 208.416C86.4359 206.201 87.8375 204.446 89.7649 203.153C91.6922 201.859 93.9747 200.999 96.6122 200.572C98.2163 200.312 99.7642 200.243 101.256 200.365C102.763 200.485 104.184 200.754 105.518 201.171L103.94 208.288C102.783 207.985 101.712 207.771 100.726 207.645C99.7528 207.502 98.7651 207.512 97.7626 207.674C96.8525 207.822 96.0892 208.191 95.4726 208.781C94.8559 209.372 94.4335 210.184 94.2053 211.218C93.9746 212.237 93.9791 213.487 94.2189 214.967C94.4638 216.479 94.8539 217.666 95.3894 218.529C95.9403 219.39 96.5965 219.972 97.3581 220.276C98.135 220.578 98.9785 220.655 99.8885 220.507C101.2 220.295 102.47 219.883 103.701 219.272C104.945 218.644 106.094 217.872 107.149 216.957L108.314 224.152C107.349 225.037 106.222 225.797 104.932 226.433C103.642 227.07 102.095 227.534 100.29 227.826ZM125.324 195.921C125.818 195.841 126.34 195.796 126.893 195.786C127.443 195.76 127.852 195.749 128.122 195.753L128.695 204.421C128.39 204.392 128.002 204.391 127.531 204.42C127.059 204.433 126.406 204.507 125.573 204.642C125.002 204.734 124.402 204.887 123.771 205.1C123.141 205.313 122.562 205.644 122.033 206.094C121.517 206.526 121.132 207.126 120.877 207.896C120.619 208.65 120.586 209.621 120.778 210.808L122.866 223.695L113.819 225.16L109.574 198.947L116.306 197.857L118.396 201.816L118.836 201.744C119.174 200.803 119.657 199.926 120.285 199.112C120.926 198.28 121.675 197.581 122.533 197.014C123.407 196.445 124.337 196.081 125.324 195.921ZM140.923 193.87L145.169 220.083L136.123 221.548L131.877 195.335L140.923 193.87ZM134.726 184.047C136.022 183.837 137.191 183.924 138.235 184.309C139.294 184.692 139.954 185.685 140.213 187.289C140.466 188.847 140.151 189.982 139.269 190.695C138.4 191.389 137.318 191.842 136.023 192.052C134.696 192.266 133.519 192.18 132.49 191.793C131.475 191.387 130.841 190.406 130.589 188.848C130.329 187.244 130.618 186.097 131.456 185.407C132.31 184.715 133.4 184.261 134.726 184.047ZM163.174 189.791C166.074 189.321 168.538 190.117 170.565 192.179C172.59 194.225 173.957 197.431 174.663 201.796C175.146 204.773 175.135 207.347 174.632 209.517C174.126 211.673 173.232 213.385 171.95 214.653C170.68 215.903 169.128 216.677 167.292 216.974C166.058 217.174 164.985 217.19 164.071 217.021C163.173 216.85 162.401 216.579 161.755 216.209C161.125 215.836 160.578 215.442 160.115 215.026L159.837 215.071C160.012 215.66 160.179 216.298 160.337 216.985C160.511 217.669 160.673 218.474 160.823 219.399L162.375 228.977L153.328 230.443L147.239 192.847L154.597 191.655L156.409 194.78L156.825 194.713C157.147 193.964 157.57 193.255 158.095 192.584C158.617 191.898 159.29 191.314 160.114 190.833C160.951 190.333 161.971 189.986 163.174 189.791ZM160.924 197.444C160.045 197.587 159.384 197.907 158.943 198.406C158.501 198.905 158.233 199.598 158.14 200.483C158.058 201.351 158.104 202.412 158.275 203.667L158.391 204.384C158.616 205.772 158.914 206.927 159.285 207.848C159.653 208.754 160.14 209.411 160.744 209.82C161.346 210.213 162.109 210.335 163.035 210.185C163.791 210.062 164.388 209.744 164.827 209.23C165.266 208.715 165.541 207.967 165.65 206.983C165.76 206 165.69 204.737 165.44 203.195C165.068 200.896 164.504 199.318 163.747 198.459C163.006 197.598 162.065 197.26 160.924 197.444ZM193.736 205.355C194.553 205.222 195.287 205.016 195.939 204.737C196.59 204.457 197.264 204.126 197.962 203.744L199.03 210.338C198.113 210.93 197.12 211.447 196.052 211.889C195.002 212.344 193.621 212.71 191.909 212.987C190.212 213.262 188.674 213.242 187.293 212.928C185.91 212.598 184.75 211.836 183.813 210.642C182.888 209.431 182.235 207.645 181.853 205.285L180.103 194.48L176.933 194.994L176.338 191.315L179.902 187.817L181.347 181.933L187.27 180.973L188.121 186.225L194.552 185.184L195.65 191.962L189.219 193.004L190.871 203.207C191.008 204.055 191.328 204.661 191.83 205.022C192.329 205.369 192.964 205.48 193.736 205.355ZM211.251 182.004C213.796 181.592 216.066 181.683 218.062 182.278C220.055 182.857 221.697 183.953 222.987 185.564C224.277 187.176 225.138 189.315 225.57 191.984L226.222 196.009L210.05 198.629C210.349 199.989 211.041 201.032 212.124 201.759C213.223 202.484 214.697 202.696 216.548 202.396C218.183 202.131 219.653 201.727 220.958 201.183C222.278 200.637 223.608 199.907 224.948 198.994L226.001 205.495C224.844 206.363 223.542 207.072 222.096 207.623C220.65 208.174 218.785 208.634 216.503 209.004C213.865 209.431 211.429 209.343 209.194 208.739C206.96 208.136 205.081 206.944 203.558 205.165C202.051 203.383 201.046 200.942 200.544 197.842C200.034 194.695 200.156 192.024 200.908 189.829C201.658 187.618 202.926 185.869 204.712 184.583C206.496 183.281 208.675 182.421 211.251 182.004ZM212.572 188.106C211.507 188.278 210.668 188.762 210.053 189.558C209.451 190.337 209.204 191.453 209.313 192.907L217.087 191.648C216.946 190.88 216.679 190.203 216.283 189.618C215.888 189.033 215.375 188.602 214.744 188.324C214.129 188.044 213.405 187.971 212.572 188.106ZM241.281 204.991C238.582 205.428 236.175 204.639 234.06 202.623C231.945 200.607 230.529 197.385 229.812 192.959C229.087 188.486 229.433 184.955 230.85 182.367C232.267 179.779 234.395 178.256 237.233 177.796C238.405 177.606 239.443 177.612 240.346 177.814C241.249 178.016 242.057 178.36 242.769 178.846C243.494 179.314 244.146 179.874 244.726 180.524L244.911 180.494C244.696 179.848 244.448 178.954 244.168 177.812C243.886 176.655 243.655 175.521 243.475 174.411L242.34 167.4L251.455 165.924L257.286 201.924L250.461 203.029L247.981 200.035L247.634 200.092C247.33 200.853 246.908 201.57 246.368 202.244C245.844 202.914 245.162 203.492 244.322 203.976C243.498 204.458 242.484 204.796 241.281 204.991ZM243.825 197.242C245.275 197.007 246.219 196.387 246.658 195.382C247.11 194.36 247.206 192.904 246.948 191.014L246.832 190.297C246.497 188.23 245.948 186.697 245.184 185.697C244.434 184.679 243.264 184.298 241.675 184.555C240.596 184.73 239.786 185.4 239.246 186.563C238.707 187.727 238.616 189.412 238.973 191.617C239.325 193.792 239.937 195.323 240.809 196.211C241.694 197.081 242.699 197.424 243.825 197.242Z" fill="black"/>
</g>
<defs>
<clipPath id="clip0_503_2">
<rect width="256" height="256" fill="white"/>
</clipPath>
</defs>
</svg>
